<svg xmlns="http://www.w3.org/2000/svg" version="1.0" viewBox="0 0 250 280">
  <path fill="#2c4a3c" d="M 67.907 7.609 C 67.907 7.609 26.81 59.969 13.01 79.669 C 8.21 86.569 7.81 90.269 11.21 95.369 C 15.01 101.069 18.881 100.435 54.501 100.39 C 88.213 100.347 83.722 100.304 98.333 100.25 C 112.077 100.199 94.51 112.369 70.41 141.769 C 52.91 163.069 47.896 168.713 46.496 171.313 C 44.596 174.713 43.973 182.519 45.937 186.043 C 50.603 194.415 59.983 192.853 73.133 192.83 C 89.633 192.801 85.212 192.944 97.612 193.034 C 112.14 193.139 106.914 195.519 70.101 253.218 C 61.391 266.87 73.128 275.965 88.71 271.569 C 100.847 268.145 232.912 117.588 241.51 103.069 C 243.78 99.235 241.242 94.511 237.311 93.537 C 231.123 92.004 215.716 92.551 202.377 92.468 C 181.775 92.339 178.43 100.634 169.685 100.456 C 167.315 100.524 165.217 98.159 170.808 90.355 C 177.497 81.018 201.432 49.486 222.773 22.994 C 226.832 17.956 221.053 7.71 213.803 7.796"></path>
</svg>
